<svg width="27" height="27" viewBox="0 0 27 27" fill="none" xmlns="http://www.w3.org/2000/svg">
<path d="M13.5 0C10.83 0 8.21987 0.791761 5.99981 2.27516C3.77974 3.75856 2.04942 5.86697 1.02763 8.33377C0.00584936 10.8006 -0.261496 13.515 0.259405 16.1337C0.780305 18.7525 2.06606 21.1579 3.95406 23.0459C5.84207 24.934 8.24754 26.2197 10.8663 26.7406C13.485 27.2615 16.1994 26.9942 18.6662 25.9724C21.133 24.9506 23.2414 23.2203 24.7248 21.0002C26.2082 18.7801 27 16.1701 27 13.5C27 9.91958 25.5777 6.4858 23.0459 3.95406C20.5142 1.42232 17.0804 0 13.5 0ZM13.5 20.6053C12.1101 20.6079 10.7504 20.1993 9.59211 19.4311L6.86191 20.3051L7.75007 17.6655C6.98285 16.6052 6.52334 15.3537 6.42223 14.049C6.32112 12.7442 6.58233 11.4368 7.17706 10.2711C7.77179 9.10531 8.67692 8.12645 9.79264 7.44246C10.9084 6.75846 12.1913 6.39589 13.5 6.39474C15.3844 6.39474 17.1917 7.14333 18.5242 8.47582C19.8567 9.80832 20.6053 11.6156 20.6053 13.5C20.6053 15.3844 19.8567 17.1917 18.5242 18.5242C17.1917 19.8567 15.3844 20.6053 13.5 20.6053Z" fill="#E6A859"/>
<path d="M13.5 20.6053C12.1101 20.6079 10.7504 20.1993 9.59211 19.4311L6.86191 20.3051L7.75007 17.6655C6.98285 16.6052 6.52334 15.3537 6.42223 14.049C6.32112 12.7442 6.58233 11.4368 7.17706 10.2711C7.77179 9.10531 8.67692 8.12645 9.79264 7.44246C10.9084 6.75846 12.1913 6.39589 13.5 6.39474C15.3844 6.39474 17.1917 7.14333 18.5242 8.47582C19.8567 9.80832 20.6053 11.6156 20.6053 13.5C20.6053 15.3844 19.8567 17.1917 18.5242 18.5242C17.1917 19.8567 15.3844 20.6053 13.5 20.6053Z" fill="#E6A859"/>
<path fill-rule="evenodd" clip-rule="evenodd" d="M6.8934 13.7354C10.3819 12.1831 12.7081 11.1596 13.872 10.6652C17.1953 9.25346 17.8858 9.0082 18.3359 9.00008C18.4349 8.99832 18.6562 9.02338 18.7996 9.14222C19.0123 9.31848 19.0135 9.7011 18.9899 9.95433C18.8098 11.887 18.0305 16.5769 17.6341 18.7415C17.4663 19.6574 17.136 19.9645 16.8163 19.9945C16.1214 20.0599 15.5937 19.5255 14.9206 19.0749C13.8674 18.3697 13.2724 17.9308 12.2501 17.2427C11.0686 16.4475 11.8345 16.0104 12.5078 15.2962C12.684 15.1092 15.7459 12.2648 15.8051 12.0067C15.8126 11.9744 15.8194 11.8541 15.7494 11.7906C15.6795 11.7271 15.5762 11.7488 15.5017 11.7661C15.3961 11.7906 13.7135 12.9264 10.4542 15.1736C9.97656 15.5086 9.54399 15.6717 9.15643 15.6632C8.72914 15.6538 7.90728 15.4165 7.29629 15.2136C6.54688 14.9648 5.95126 14.8332 6.00315 14.4107C6.03017 14.1906 6.3269 13.9655 6.8934 13.7354Z" fill="white"/>
</svg>
