<svg width="27" height="27" viewBox="0 0 27 27" fill="none" xmlns="http://www.w3.org/2000/svg">
<path d="M16.1645 14.2532C16.076 14.1602 15.965 14.0916 15.8422 14.0543C15.7193 14.0169 15.5889 14.0121 15.4637 14.0401C15.3384 14.0682 15.2226 14.1283 15.1275 14.2146C15.0324 14.3008 14.9612 14.4102 14.921 14.5321C14.8575 14.7042 14.7338 14.8474 14.5728 14.9352C14.4118 15.0231 14.2244 15.0496 14.0453 15.0099C13.2477 14.811 12.1731 13.7665 11.9741 12.9405C11.9255 12.7609 11.9481 12.5694 12.0371 12.4059C12.1261 12.2425 12.2747 12.1197 12.452 12.063C12.5716 12.0228 12.679 11.9526 12.764 11.8591C12.8489 11.7656 12.9085 11.652 12.9372 11.529C12.9658 11.4061 12.9626 11.2778 12.9277 11.1564C12.8928 11.035 12.8275 10.9246 12.7379 10.8356L11.6224 9.72006C11.4759 9.58537 11.2841 9.51062 11.0851 9.51062C10.886 9.51062 10.6943 9.58537 10.5477 9.72006L9.79103 10.4803C9.03432 11.2761 9.87096 13.3864 11.745 15.2586C13.619 17.1308 15.7257 18.0048 16.5215 17.2126L17.2782 16.4558C17.4104 16.3098 17.4836 16.1199 17.4836 15.923C17.4836 15.726 17.4104 15.5361 17.2782 15.3901L16.1645 14.2532Z" fill="#E6A859"/>
<path d="M13.5 0C10.83 0 8.21987 0.791761 5.99981 2.27516C3.77974 3.75856 2.04942 5.86697 1.02763 8.33377C0.00584931 10.8006 -0.261496 13.515 0.259405 16.1337C0.780305 18.7525 2.06606 21.1579 3.95406 23.0459C5.84207 24.934 8.24754 26.2197 10.8663 26.7406C13.485 27.2615 16.1994 26.9942 18.6662 25.9724C21.133 24.9506 23.2414 23.2203 24.7248 21.0002C26.2082 18.7801 27 16.17 27 13.5C27 9.91958 25.5777 6.4858 23.0459 3.95406C20.5142 1.42232 17.0804 0 13.5 0ZM13.5 20.6053C12.1101 20.6079 10.7504 20.1993 9.59211 19.4311L6.86191 20.3051L7.75007 17.6655C6.98285 16.6052 6.52334 15.3537 6.42223 14.049C6.32112 12.7442 6.58233 11.4368 7.17706 10.2711C7.77179 9.10531 8.67692 8.12645 9.79264 7.44246C10.9084 6.75846 12.1913 6.39589 13.5 6.39474C15.3844 6.39474 17.1917 7.14333 18.5242 8.47582C19.8567 9.80832 20.6053 11.6156 20.6053 13.5C20.6053 15.3844 19.8567 17.1917 18.5242 18.5242C17.1917 19.8567 15.3844 20.6053 13.5 20.6053Z" fill="#E6A859"/>
</svg>
